<svg width="40" height="40" viewBox="0 0 40 40" fill="none" xmlns="http://www.w3.org/2000/svg">
<g filter="url(#filter0_d_525_4444)">
<rect x="4" width="32" height="32" rx="16" fill="#7122A0"/>
<path fill-rule="evenodd" clip-rule="evenodd" d="M20 8C15.6 8 12 11.6 12 16C12 20.4 15.6 24 20 24C24.4 24 28 20.4 28 16C28 11.6 24.4 8 20 8ZM20 20C19.4 20 19 19.6 19 19C19 18.4 19.4 18 20 18C20.6 18 21 18.4 21 19C21 19.6 20.6 20 20 20ZM19 17H21V12H19V17Z" fill="white"/>
</g>
<defs>
<filter id="filter0_d_525_4444" x="0" y="0" width="40" height="40" filterUnits="userSpaceOnUse" color-interpolation-filters="sRGB">
<feFlood flood-opacity="0" result="BackgroundImageFix"/>
<feColorMatrix in="SourceAlpha" type="matrix" values="0 0 0 0 0 0 0 0 0 0 0 0 0 0 0 0 0 0 127 0" result="hardAlpha"/>
<feOffset dy="4"/>
<feGaussianBlur stdDeviation="2"/>
<feComposite in2="hardAlpha" operator="out"/>
<feColorMatrix type="matrix" values="0 0 0 0 0 0 0 0 0 0 0 0 0 0 0 0 0 0 0.25 0"/>
<feBlend mode="normal" in2="BackgroundImageFix" result="effect1_dropShadow_525_4444"/>
<feBlend mode="normal" in="SourceGraphic" in2="effect1_dropShadow_525_4444" result="shape"/>
</filter>
</defs>
</svg>
