<svg width="24" height="24" viewBox="0 0 24 24" fill="none" xmlns="http://www.w3.org/2000/svg">
<path fill-rule="evenodd" clip-rule="evenodd" d="M18.0001 12C18.0001 10.3431 19.3432 9 21.0001 9C22.6569 9 24.0001 10.3431 24.0001 12C24.0001 13.6569 22.6569 15 21.0001 15C20.5544 14.9978 20.1149 14.8953 19.7142 14.7001L12.7072 21.7071L11.293 20.2929L18.3 13.2859C18.1048 12.8852 18.0023 12.4457 18.0001 12Z" fill="#475569"/>
<path fill-rule="evenodd" clip-rule="evenodd" d="M10.7142 18.3L4.70718 12.293L3.29297 13.7072L9.30001 19.7142C9.10478 20.1149 9.00227 20.5544 9.00008 21.0001C9.00008 22.6569 10.3432 24.0001 12.0001 24.0001C13.6569 24.0001 15.0001 22.6569 15.0001 21.0001C15.0001 19.3432 13.6569 18.0001 12.0001 18.0001C11.5544 18.0023 11.1149 18.1048 10.7142 18.3Z" fill="#94A3B8"/>
<path fill-rule="evenodd" clip-rule="evenodd" d="M12.7071 3.70718L11.2929 2.29297L4.28586 9.30001C3.88518 9.10478 3.4457 9.00227 3 9.00008C1.34315 9.00008 0 10.3432 0 12.0001C0 13.6569 1.34315 15.0001 3 15.0001C4.65685 15.0001 6 13.6569 6 12.0001C5.99781 11.5544 5.89529 11.1149 5.70007 10.7142L12.7071 3.70718Z" fill="#475569"/>
<path fill-rule="evenodd" clip-rule="evenodd" d="M12 6C12.4457 5.99781 12.8852 5.89529 13.2859 5.70007L18.2924 10.7066C18.588 10.0888 19.0888 9.588 19.7066 9.29237L14.7001 4.28586C14.8953 3.88518 14.9978 3.4457 15 3C15 1.34315 13.6569 0 12 0C10.3431 0 9 1.34315 9 3C9 4.65685 10.3431 6 12 6Z" fill="#94A3B8"/>
</svg>
