<svg width="350" height="89" viewBox="0 0 350 89" fill="none" xmlns="http://www.w3.org/2000/svg">
<rect width="349" height="88" fill="#F8FAFC"/>
<rect y="88" width="349" height="1" fill="#F1F5F9"/>
<path fill-rule="evenodd" clip-rule="evenodd" d="M1 24L14 34H23L42 45H80L89 59H99L112 45L128 59L159 34L175 72L183 75L201 66L216 72H230L247 78L257 66L277 59L294 66L323 34L331 47L349 42V88H1V24Z" fill="#3B82F6" fill-opacity="0.08"/>
<path d="M0 44H22L45 61H62L79 67H126L138 77L153 67L166 77H179L194 67H209L218 61L240 67L252 77H304L317 67L330 26L343 38L348 36" stroke="#CBD5E1" stroke-width="2"/>
<path d="M1 24L14 34H23L42 45H80L89 59H99L112 45L128 59L159 34L175 72L183 75L201 66L216 72H230L247 78L257 66L277 59L294 66L323 34L331 47L349 42" stroke="#244B8A" stroke-width="2"/>
</svg>
