<svg width="23" height="23" viewBox="0 0 23 23" fill="none" xmlns="http://www.w3.org/2000/svg">
<path d="M14.5 7C19.1946 7 23 10.184 23 14.1111C23 15.7084 22.3625 17.1778 21.3 18.3644V23L17.1919 20.8524C16.3453 21.0889 15.4418 21.2222 14.5 21.2222C9.80545 21.2222 6 18.0382 6 14.1111C6 10.184 9.80545 7 14.5 7Z" fill="#475569"/>
<path d="M11 1C5.477 1 1 4.582 1 9C1 10.797 1.75 12.45 3 13.785V19L7.833 16.584C8.829 16.85 9.892 17 11 17C16.523 17 21 13.418 21 9C21 4.582 16.523 1 11 1Z" fill="#94A3B8"/>
</svg>
