<svg width="40" height="40" viewBox="0 0 40 40" fill="none" xmlns="http://www.w3.org/2000/svg">
<g filter="url(#filter0_d_525_4452)">
<rect x="4" width="32" height="32" rx="16" fill="#6B24A0"/>
</g>
<circle cx="31" cy="5" r="4" fill="#F43F5E" stroke="white" stroke-width="2"/>
<path d="M27.9998 17.5003C27.9998 16.5133 27.5708 15.6033 26.8528 14.8613C26.1238 18.3483 22.6598 21.0003 18.4998 21.0003C18.3968 21.0003 18.2978 20.9823 18.1948 20.9793C19.2308 21.6173 20.5558 22.0003 21.9998 22.0003C22.4488 22.0003 22.8858 21.9603 23.3068 21.8903L26.9998 24.0003V20.0003H26.9878C27.6268 19.2853 27.9998 18.4253 27.9998 17.5003Z" fill="white"/>
<path d="M18.5 8C14.91 8 12 10.462 12 13.5C12 14.575 12.37 15.574 13 16.422V20L15.699 18.458C16.548 18.802 17.496 19 18.5 19C22.09 19 25 16.538 25 13.5C25 10.462 22.09 8 18.5 8Z" fill="white"/>
<defs>
<filter id="filter0_d_525_4452" x="0" y="0" width="40" height="40" filterUnits="userSpaceOnUse" color-interpolation-filters="sRGB">
<feFlood flood-opacity="0" result="BackgroundImageFix"/>
<feColorMatrix in="SourceAlpha" type="matrix" values="0 0 0 0 0 0 0 0 0 0 0 0 0 0 0 0 0 0 127 0" result="hardAlpha"/>
<feOffset dy="4"/>
<feGaussianBlur stdDeviation="2"/>
<feComposite in2="hardAlpha" operator="out"/>
<feColorMatrix type="matrix" values="0 0 0 0 0 0 0 0 0 0 0 0 0 0 0 0 0 0 0.25 0"/>
<feBlend mode="normal" in2="BackgroundImageFix" result="effect1_dropShadow_525_4452"/>
<feBlend mode="normal" in="SourceGraphic" in2="effect1_dropShadow_525_4452" result="shape"/>
</filter>
</defs>
</svg>
